<svg width="22" height="23" viewBox="0 0 22 23" fill="none" xmlns="http://www.w3.org/2000/svg">
    <path d="M2.09912 7.79829V16.7175C2.09912 18.4591 3.33662 19.1741 4.83995 18.3125L6.99412 17.0841C7.46162 16.8183 8.24079 16.7908 8.72662 17.0383L13.5391 19.4491C14.025 19.6875 14.8041 19.6691 15.2716 19.4033L19.2408 17.13C19.745 16.8366 20.1666 16.1216 20.1666 15.535V6.61579C20.1666 4.87412 18.9291 4.15912 17.4258 5.02079L15.2716 6.24912C14.8041 6.51496 14.025 6.54246 13.5391 6.29496L8.72662 3.89329C8.24079 3.65496 7.46162 3.67329 6.99412 3.93912L3.02495 6.21246C2.51162 6.50579 2.09912 7.22079 2.09912 7.79829Z" stroke="#AEAEAE" stroke-width="1.5" stroke-linecap="round" stroke-linejoin="round"/>
    <path d="M7.84668 4.33331V16.25" stroke="#AEAEAE" stroke-width="1.5" stroke-linecap="round" stroke-linejoin="round"/>
    <path d="M14.4192 6.73499V19" stroke="#AEAEAE" stroke-width="1.5" stroke-linecap="round" stroke-linejoin="round"/>
</svg>
