<svg width="28" height="22" viewBox="0 0 28 22" fill="none" xmlns="http://www.w3.org/2000/svg">
    <path d="M8.86965 0.723898C9.1197 0.47385 9.45884 0.333374 9.81246 0.333374H17.8125C18.1661 0.333374 18.5052 0.47385 18.7553 0.723898L21.0314 3.00004H24.4791C25.9519 3.00004 27.1458 4.19395 27.1458 5.66671V19C27.1458 20.4728 25.9519 21.6667 24.4791 21.6667H3.14579C1.67303 21.6667 0.479126 20.4728 0.479126 19V5.66671C0.479126 4.19395 1.67303 3.00004 3.14579 3.00004H6.59351L8.86965 0.723898ZM10.3647 3.00004L8.0886 5.27618C7.83855 5.52623 7.49941 5.66671 7.14579 5.66671L3.14579 5.66671V19H24.4791V5.66671H20.4791C20.1255 5.66671 19.7864 5.52623 19.5363 5.27618L17.2602 3.00004H10.3647ZM13.8125 9.00004C12.3397 9.00004 11.1458 10.1939 11.1458 11.6667C11.1458 13.1395 12.3397 14.3334 13.8125 14.3334C15.2852 14.3334 16.4791 13.1395 16.4791 11.6667C16.4791 10.1939 15.2852 9.00004 13.8125 9.00004ZM8.47913 11.6667C8.47913 8.72119 10.8669 6.33337 13.8125 6.33337C16.758 6.33337 19.1458 8.72119 19.1458 11.6667C19.1458 14.6122 16.758 17 13.8125 17C10.8669 17 8.47913 14.6122 8.47913 11.6667Z" fill="white"/>
</svg>
