<svg width="20" height="21" viewBox="0 0 20 21" fill="none" xmlns="http://www.w3.org/2000/svg">
    <path d="M10.9167 19.6883H3.58337C1.75004 19.6883 0.833374 18.7716 0.833374 16.9383V9.60498C0.833374 7.77165 1.75004 6.85498 3.58337 6.85498H8.16671V16.9383C8.16671 18.7716 9.08337 19.6883 10.9167 19.6883Z" stroke="#AEAEAE" stroke-width="1.5" stroke-miterlimit="10" stroke-linecap="round" stroke-linejoin="round"/>
    <path d="M11.8334 6.85498V11.4383" stroke="#AEAEAE" stroke-width="1.5" stroke-miterlimit="10" stroke-linecap="round" stroke-linejoin="round"/>
    <path d="M15.5 6.85498V11.4383" stroke="#AEAEAE" stroke-width="1.5" stroke-miterlimit="10" stroke-linecap="round" stroke-linejoin="round"/>
    <path d="M14.5834 15.105H12.75C12.2459 15.105 11.8334 15.5175 11.8334 16.0216V19.6883H15.5V16.0216C15.5 15.5175 15.0875 15.105 14.5834 15.105Z" stroke="#AEAEAE" stroke-width="1.5" stroke-miterlimit="10" stroke-linecap="round" stroke-linejoin="round"/>
    <path d="M4.5 11.4382V15.1049" stroke="#AEAEAE" stroke-width="1.5" stroke-miterlimit="10" stroke-linecap="round" stroke-linejoin="round"/>
    <path d="M8.16663 16.9383V4.10498C8.16663 2.27165 9.08329 1.35498 10.9166 1.35498H16.4166C18.25 1.35498 19.1666 2.27165 19.1666 4.10498V16.9383C19.1666 18.7716 18.25 19.6883 16.4166 19.6883H10.9166C9.08329 19.6883 8.16663 18.7716 8.16663 16.9383Z" stroke="#AEAEAE" stroke-width="1.5" stroke-miterlimit="10" stroke-linecap="round" stroke-linejoin="round"/>
</svg>