<svg width="21" height="19" viewBox="0 0 21 19" fill="none" xmlns="http://www.w3.org/2000/svg">
    <path d="M9.83565 0.252591C10.2145 -0.0841969 10.7855 -0.0841969 11.1644 0.252591L20.1644 8.25259C20.5772 8.61951 20.6143 9.25158 20.2474 9.66436C19.8805 10.0771 19.2484 10.1143 18.8356 9.74741L18.5 9.44907V17C18.5 18.1046 17.6046 19 16.5 19H4.50001C3.39544 19 2.50001 18.1046 2.50001 17V9.44907L2.16437 9.74741C1.75159 10.1143 1.11952 10.0771 0.752601 9.66436C0.385683 9.25158 0.422864 8.61951 0.835647 8.25259L9.83565 0.252591ZM4.50001 7.67129V17H7.50001V12C7.50001 11.4477 7.94773 11 8.50001 11H12.5C13.0523 11 13.5 11.4477 13.5 12V17H16.5V7.67129L10.5 2.33795L4.50001 7.67129ZM11.5 17V13H9.50001V17H11.5Z" fill="white"/>
</svg>