<svg width="19" height="17" viewBox="0 0 19 17" fill="none" xmlns="http://www.w3.org/2000/svg">
    <path d="M6.625 4.90625V3.10938C6.625 2.63281 6.81431 2.17577 7.15129 1.83879C7.48827 1.50181 7.94531 1.3125 8.42188 1.3125H15.6094C16.0859 1.3125 16.543 1.50181 16.88 1.83879C17.2169 2.17577 17.4062 2.63281 17.4062 3.10938V13.8906C17.4062 14.3672 17.2169 14.8242 16.88 15.1612C16.543 15.4982 16.0859 15.6875 15.6094 15.6875H8.78125C7.78893 15.6875 6.625 14.8829 6.625 13.8906V12.0938" stroke="#AEAEAE" stroke-width="1.5" stroke-linecap="round" stroke-linejoin="round"/>
    <path d="M10.9375 12.0938L14.5312 8.5L10.9375 4.90625M1.59375 8.5H13.8125" stroke="#AEAEAE" stroke-width="1.5" stroke-linecap="round" stroke-linejoin="round"/>
</svg>