<svg width="22" height="23" viewBox="0 0 22 23" fill="none" xmlns="http://www.w3.org/2000/svg">
    <path d="M11 18.7638C14.797 18.7638 17.875 15.6858 17.875 11.8888C17.875 8.09184 14.797 5.01379 11 5.01379C7.20304 5.01379 4.125 8.09184 4.125 11.8888C4.125 15.6858 7.20304 18.7638 11 18.7638Z" stroke="#AEAEAE" stroke-width="1.5" stroke-linecap="round" stroke-linejoin="round"/>
    <path d="M11 14.6388C12.5188 14.6388 13.75 13.4076 13.75 11.8888C13.75 10.37 12.5188 9.13879 11 9.13879C9.48122 9.13879 8.25 10.37 8.25 11.8888C8.25 13.4076 9.48122 14.6388 11 14.6388Z" stroke="#AEAEAE" stroke-width="1.5" stroke-linecap="round" stroke-linejoin="round"/>
    <path d="M11 4.5555V2.72217" stroke="#AEAEAE" stroke-width="1.5" stroke-linecap="round" stroke-linejoin="round"/>
    <path d="M3.66671 11.8888H1.83337" stroke="#AEAEAE" stroke-width="1.5" stroke-linecap="round" stroke-linejoin="round"/>
    <path d="M11 19.2222V21.0555" stroke="#AEAEAE" stroke-width="1.5" stroke-linecap="round" stroke-linejoin="round"/>
    <path d="M18.3334 11.8888H20.1667" stroke="#AEAEAE" stroke-width="1.5" stroke-linecap="round" stroke-linejoin="round"/>
</svg>