<svg width="21" height="21" viewBox="0 0 21 21" fill="none" xmlns="http://www.w3.org/2000/svg">
    <path d="M10.5 20.0833C15.7927 20.0833 20.0834 15.7927 20.0834 10.5C20.0834 5.20723 15.7927 0.916626 10.5 0.916626C5.20729 0.916626 0.916687 5.20723 0.916687 10.5C0.916687 15.7927 5.20729 20.0833 10.5 20.0833Z" stroke="#AEAEAE" stroke-width="1.5" stroke-linecap="round" stroke-linejoin="round"/>
    <path d="M7.71124 7.62506C7.93655 6.98457 8.38126 6.44449 8.96662 6.10048C9.55197 5.75646 10.2402 5.63071 10.9094 5.74549C11.5786 5.86027 12.1855 6.20818 12.6228 6.7276C13.06 7.24703 13.2993 7.90443 13.2983 8.58339C13.2983 10.5001 10.4233 11.4584 10.4233 11.4584V13.0897" stroke="#AEAEAE" stroke-width="1.5" stroke-linecap="round" stroke-linejoin="round"/>
    <path d="M10.5 15.2916H10.5104" stroke="#AEAEAE" stroke-width="1.5" stroke-linecap="round" stroke-linejoin="round"/>
</svg>