<svg width="25" height="25" viewBox="0 0 25 25" fill="none" xmlns="http://www.w3.org/2000/svg">
    <path d="M12.5 4.73108C8.08172 4.73108 4.5 8.3128 4.5 12.7311C4.5 17.1494 8.08172 20.7311 12.5 20.7311C16.9183 20.7311 20.5 17.1494 20.5 12.7311C20.5 8.3128 16.9183 4.73108 12.5 4.73108ZM2.5 12.7311C2.5 7.20823 6.97715 2.73108 12.5 2.73108C18.0228 2.73108 22.5 7.20823 22.5 12.7311C22.5 18.2539 18.0228 22.7311 12.5 22.7311C6.97715 22.7311 2.5 18.2539 2.5 12.7311ZM17.1644 9.48367C17.5771 9.85059 17.6143 10.4827 17.2474 10.8954L11.9141 16.8954C11.7243 17.1089 11.4523 17.2311 11.1667 17.2311C10.881 17.2311 10.609 17.1089 10.4193 16.8954L7.75259 13.8954C7.38567 13.4827 7.42285 12.8506 7.83564 12.4837C8.24842 12.1168 8.88049 12.1539 9.24741 12.5667L11.1667 14.7259L15.7526 9.56672C16.1195 9.15393 16.7516 9.11675 17.1644 9.48367Z" fill="white"/>
</svg>